<svg width="421" height="137" viewBox="0 0 421 137" fill="none" xmlns="http://www.w3.org/2000/svg">
<path d="M20.1309 103.838C20.222 105.57 20.6322 107.21 21.3613 108.76C22.1361 110.355 23.1159 111.745 24.3008 112.93C25.5312 114.115 26.944 115.049 28.5391 115.732C30.1341 116.416 31.8659 116.758 33.7344 116.758H69.3496C71.0358 116.712 72.6309 116.37 74.1348 115.732C75.6387 115.094 76.9603 114.251 78.0996 113.203C79.2845 112.155 80.2415 110.924 80.9707 109.512C81.7454 108.099 82.224 106.595 82.4062 105H67.0254C62.377 105 58.0247 104.111 53.9688 102.334C49.9128 100.557 46.3809 98.1413 43.373 95.0879C40.3652 92.0345 37.9727 88.4798 36.1953 84.4238C34.4635 80.3223 33.5977 75.9701 33.5977 71.3672C33.5977 66.7188 34.4635 62.3665 36.1953 58.3105C37.9727 54.2546 40.3652 50.6999 43.373 47.6465C46.3809 44.5931 49.9128 42.2005 53.9688 40.4688C58.0247 38.6914 62.377 37.8027 67.0254 37.8027H102.641V47.7832C102.641 50.5176 101.729 52.8874 99.9062 54.8926C97.9922 56.8066 95.7363 57.7637 93.1387 57.7637H67.0254C65.1569 57.7637 63.4023 58.1283 61.7617 58.8574C60.1667 59.541 58.7539 60.498 57.5234 61.7285C56.3385 62.959 55.3815 64.4173 54.6523 66.1035C53.9688 67.7441 53.627 69.4987 53.627 71.3672C53.627 73.1901 53.9688 74.9219 54.6523 76.5625C55.3815 78.1576 56.3385 79.5703 57.5234 80.8008C58.7539 82.0312 60.1667 83.0111 61.7617 83.7402C63.4023 84.4238 65.1569 84.7656 67.0254 84.7656H102.709V105C102.481 109.284 101.479 113.294 99.7012 117.031C97.9694 120.814 95.668 124.118 92.7969 126.943C89.9258 129.814 86.599 132.116 82.8164 133.848C79.0339 135.625 75.0007 136.628 70.7168 136.855H33.1191C28.653 136.764 24.4603 135.853 20.541 134.121C16.6217 132.389 13.1582 130.065 10.1504 127.148C7.18815 124.277 4.81836 120.882 3.04102 116.963C1.26367 113.089 0.283854 108.919 0.101562 104.453V87.1582C0.101562 83.6947 1.74219 80.8464 5.02344 78.6133C6.61849 77.6562 8.25911 77.1777 9.94531 77.1777H20.1309V103.838ZM111.117 12.9199C111.117 9.45638 112.758 6.60807 116.039 4.375C117.634 3.41797 119.275 2.93945 120.961 2.93945H131.215V71.709C131.26 73.5775 131.648 75.3092 132.377 76.9043C133.106 78.4993 134.086 79.8893 135.316 81.0742C136.547 82.2135 137.96 83.125 139.555 83.8086C141.195 84.4922 142.927 84.834 144.75 84.834H145.297V105H144.75C140.147 105 135.818 104.134 131.762 102.402C127.706 100.625 124.151 98.2324 121.098 95.2246C118.044 92.2168 115.629 88.7077 113.852 84.6973C112.074 80.6413 111.163 76.3118 111.117 71.709V12.9199ZM183.92 84.9023C186.016 84.6289 187.953 83.9453 189.73 82.8516C191.508 81.7122 192.989 80.14 194.174 78.1348C195.085 76.5853 195.632 74.9447 195.814 73.2129C195.997 71.4355 195.86 69.7266 195.404 68.0859C194.949 66.3997 194.174 64.8503 193.08 63.4375C192.032 61.9792 190.71 60.7715 189.115 59.8145C187.52 58.903 185.834 58.3561 184.057 58.1738C182.279 57.946 180.548 58.0599 178.861 58.5156C177.221 58.9258 175.671 59.6777 174.213 60.7715C172.8 61.8197 171.615 63.1641 170.658 64.8047C169.701 66.3997 169.109 68.0859 168.881 69.8633C168.699 71.6406 168.835 73.3724 169.291 75.0586C169.747 76.6992 170.499 78.2487 171.547 79.707C172.595 81.1198 173.917 82.2819 175.512 83.1934C177.289 84.196 179.044 84.7656 180.775 84.9023H183.92ZM142.221 84.9023H152.064C150.424 81.0286 149.512 77.041 149.33 72.9395C149.193 68.8379 149.74 64.8958 150.971 61.1133C152.201 57.2852 154.092 53.7533 156.645 50.5176C159.197 47.2819 162.364 44.5703 166.146 42.3828C170.111 40.0586 174.304 38.6458 178.725 38.1445C183.145 37.6432 187.429 37.9622 191.576 39.1016C195.769 40.1953 199.643 42.0866 203.197 44.7754C206.798 47.4186 209.76 50.7454 212.084 54.7559C213.679 57.5358 214.841 60.4069 215.57 63.3691C216.299 66.2858 216.618 69.248 216.527 72.2559C216.664 73.9876 217.12 75.6283 217.895 77.1777C218.669 78.6816 219.649 80.0033 220.834 81.1426C222.019 82.2819 223.386 83.1934 224.936 83.877C226.531 84.5605 228.217 84.9023 229.994 84.9023V105C225.437 105 221.176 104.111 217.211 102.334C213.246 100.557 209.76 98.2096 206.752 95.293C204.701 97.3438 202.377 99.1211 199.779 100.625C196.726 102.357 193.536 103.61 190.209 104.385C186.882 105.114 183.578 105.319 180.297 105H142.768L142.221 84.9023ZM183.852 0.136719C185.492 0.136719 187.019 0.455729 188.432 1.09375C189.844 1.73177 191.075 2.59766 192.123 3.69141C193.217 4.73958 194.06 5.99284 194.652 7.45117C195.29 8.90951 195.609 10.459 195.609 12.0996C195.609 13.7402 195.29 15.2897 194.652 16.748C194.06 18.1608 193.217 19.4141 192.123 20.5078C191.075 21.556 189.844 22.3991 188.432 23.0371C187.019 23.6296 185.492 23.9258 183.852 23.9258C182.211 23.9258 180.661 23.6296 179.203 23.0371C177.79 22.3991 176.537 21.556 175.443 20.5078C174.395 19.4141 173.552 18.1608 172.914 16.748C172.322 15.2897 172.025 13.7402 172.025 12.0996C172.025 10.459 172.322 8.90951 172.914 7.45117C173.552 5.99284 174.395 4.73958 175.443 3.69141C176.537 2.59766 177.79 1.73177 179.203 1.09375C180.661 0.455729 182.211 0.136719 183.852 0.136719ZM240.59 112.314C242.23 112.314 243.757 112.633 245.17 113.271C246.583 113.91 247.813 114.753 248.861 115.801C249.955 116.895 250.798 118.171 251.391 119.629C252.029 121.087 252.348 122.637 252.348 124.277C252.348 125.918 252.029 127.445 251.391 128.857C250.798 130.316 249.955 131.569 248.861 132.617C247.813 133.711 246.583 134.554 245.17 135.146C243.757 135.785 242.23 136.104 240.59 136.104C238.949 136.104 237.4 135.785 235.941 135.146C234.529 134.554 233.275 133.711 232.182 132.617C231.133 131.569 230.29 130.316 229.652 128.857C229.06 127.445 228.764 125.918 228.764 124.277C228.764 122.637 229.06 121.087 229.652 119.629C230.29 118.171 231.133 116.895 232.182 115.801C233.275 114.753 234.529 113.91 235.941 113.271C237.4 112.633 238.949 112.314 240.59 112.314ZM267.865 112.314C269.506 112.314 271.033 112.633 272.445 113.271C273.858 113.91 275.089 114.753 276.137 115.801C277.23 116.895 278.074 118.171 278.666 119.629C279.304 121.087 279.623 122.637 279.623 124.277C279.623 125.918 279.304 127.445 278.666 128.857C278.074 130.316 277.23 131.569 276.137 132.617C275.089 133.711 273.858 134.554 272.445 135.146C271.033 135.785 269.506 136.104 267.865 136.104C266.225 136.104 264.675 135.785 263.217 135.146C261.804 134.554 260.551 133.711 259.457 132.617C258.409 131.569 257.566 130.316 256.928 128.857C256.335 127.445 256.039 125.918 256.039 124.277C256.039 122.637 256.335 121.087 256.928 119.629C257.566 118.171 258.409 116.895 259.457 115.801C260.551 114.753 261.804 113.91 263.217 113.271C264.675 112.633 266.225 112.314 267.865 112.314ZM263.012 64.873C263.057 63.278 263.559 61.6829 264.516 60.0879C266.794 56.8066 269.711 55.166 273.266 55.166H283.109V71.5039C283.109 76.0612 282.243 80.3451 280.512 84.3555C278.78 88.3659 276.433 91.875 273.471 94.8828C270.508 97.8906 267.022 100.306 263.012 102.129C259.047 103.906 254.809 104.863 250.297 105H227.738V84.9023H249.408C251.231 84.9023 252.963 84.5605 254.604 83.877C256.244 83.1478 257.68 82.1908 258.91 81.0059C260.141 79.7754 261.12 78.3626 261.85 76.7676C262.579 75.127 262.943 73.3724 262.943 71.5039V64.873H263.012ZM358.305 72.8711C358.533 74.4661 358.988 75.9245 359.672 77.2461C360.401 78.75 361.358 80.0716 362.543 81.2109C363.728 82.3047 365.095 83.1706 366.645 83.8086C368.194 84.4466 369.857 84.7656 371.635 84.7656H372.25V105H371.635C367.077 105 362.794 104.157 358.783 102.471C354.773 100.739 351.241 98.3691 348.188 95.3613C348.142 95.4069 348.096 95.4525 348.051 95.498C345.089 98.3236 341.671 100.579 337.797 102.266C333.695 104.043 329.32 104.932 324.672 104.932H287.826C290.105 96.3639 291.745 91.2598 292.748 89.6191C295.027 86.3379 297.966 84.6973 301.566 84.6973H324.672C326.495 84.6973 328.227 84.3555 329.867 83.6719C331.508 82.9427 332.943 81.9857 334.174 80.8008C335.404 79.5703 336.384 78.1348 337.113 76.4941C337.751 75.1725 338.116 73.7826 338.207 72.3242L338.139 70.2734C338.048 68.8151 337.683 67.4023 337.045 66.0352C336.316 64.4401 335.336 63.0501 334.105 61.8652C332.875 60.6348 331.439 59.6777 329.799 58.9941C328.158 58.265 326.426 57.9004 324.604 57.9004H298.764C296.12 57.9004 293.842 56.9206 291.928 54.9609C290.059 52.9557 289.125 50.5632 289.125 47.7832V37.666H324.604C329.252 37.666 333.627 38.5547 337.729 40.332C341.83 42.1094 345.408 44.5247 348.461 47.5781C351.514 50.6315 353.93 54.1862 355.707 58.2422C357.348 62.0247 358.214 66.0579 358.305 70.3418V72.8711ZM380.59 21.875C382.23 21.875 383.757 22.194 385.17 22.832C386.583 23.4701 387.813 24.3359 388.861 25.4297C389.955 26.4779 390.798 27.7311 391.391 29.1895C392.029 30.6478 392.348 32.1973 392.348 33.8379C392.348 35.4785 392.029 37.028 391.391 38.4863C390.798 39.8991 389.955 41.1523 388.861 42.2461C387.813 43.2943 386.583 44.1374 385.17 44.7754C383.757 45.3678 382.23 45.6641 380.59 45.6641C378.949 45.6641 377.4 45.3678 375.941 44.7754C374.529 44.1374 373.275 43.2943 372.182 42.2461C371.133 41.1523 370.313 39.8991 369.721 38.4863C369.083 37.028 368.764 35.4785 368.764 33.8379C368.764 32.1973 369.083 30.6478 369.721 29.1895C370.313 27.7311 371.133 26.4779 372.182 25.4297C373.275 24.3359 374.529 23.4701 375.941 22.832C377.4 22.194 378.949 21.875 380.59 21.875ZM408.344 21.875C409.984 21.875 411.511 22.194 412.924 22.832C414.337 23.4701 415.567 24.3359 416.615 25.4297C417.709 26.4779 418.552 27.7311 419.145 29.1895C419.783 30.6478 420.102 32.1973 420.102 33.8379C420.102 35.4785 419.783 37.028 419.145 38.4863C418.552 39.8991 417.709 41.1523 416.615 42.2461C415.567 43.2943 414.337 44.1374 412.924 44.7754C411.511 45.3678 409.984 45.6641 408.344 45.6641C406.703 45.6641 405.154 45.3678 403.695 44.7754C402.283 44.1374 401.029 43.2943 399.936 42.2461C398.887 41.1523 398.044 39.8991 397.406 38.4863C396.814 37.028 396.518 35.4785 396.518 33.8379C396.518 32.1973 396.814 30.6478 397.406 29.1895C398.044 27.7311 398.887 26.4779 399.936 25.4297C401.029 24.3359 402.283 23.4701 403.695 22.832C405.154 22.194 406.703 21.875 408.344 21.875ZM370.951 84.6973H371.566C373.344 84.6973 375.03 84.3555 376.625 83.6719C378.266 82.9883 379.678 82.0768 380.863 80.9375C382.094 79.7526 383.074 78.3626 383.803 76.7676C384.577 75.1725 385.01 73.4408 385.102 71.5723V65.0098C385.102 63.3236 385.603 61.6602 386.605 60.0195C388.884 56.7383 391.801 55.0977 395.355 55.0977H405.199V71.3672C405.199 75.9701 404.311 80.2995 402.533 84.3555C400.801 88.4115 398.409 91.9661 395.355 95.0195C392.302 98.0729 388.725 100.488 384.623 102.266C380.567 104.043 376.215 104.932 371.566 104.932H370.951V84.6973Z" fill="white"/>
</svg>
